<svg xmlns="http://www.w3.org/2000/svg" viewBox="0 0 243.7762 66.4398"><path d="M64.488 22v.08l-18.14 24.47a4.57 4.57 0 01-3.92 2.1h-17.79c-2.37 0-3.37-.66-4.36-3.15l-5.39-17.37a4.82 4.82 0 01.38-4.62l18-23.51h-.15a33.22 33.22 0 1031.37 22z" fill="#dae64a"/><path d="M14.888 28.13l5.39 17.37c1 2.49 2 3.15 4.36 3.15h17.79a4.57 4.57 0 003.92-2.1l18.14-24.47V22a33.25 33.25 0 00-31.14-22l-18 23.51a4.82 4.82 0 00-.46 4.62zm7.36-5.94h22v7.16h-7.36v12.18h-7.15V29.35h-7.49z"/><path d="M29.728 41.53h7.16V29.34h7.4v-7.15h-22.04v7.15h7.48z" fill="#fff"/><path d="M124.308 41.51h-6.14l-3.63-12.18-3.53 12.18h-6.16l-6.15-19.28h5.73l3.82 11.86 3.13-11.83h6.46l3.14 11.83 3.69-11.86h5.71zm22.05-.37a16.69 16.69 0 01-5.09.55c-6.23 0-9.53-4.52-9.53-9.7 0-4.32 2-10.06 9.25-10.06 7.09 0 9.57 4.36 8.72 12.26h-12.14c0 1.8 2.1 3 4 3a10.74 10.74 0 003.28-.41zm-5.1-14.71c-1.15 0-3.69.07-3.65 3.65h7.17c-.04-3.34-1.78-3.63-3.52-3.65zm65.77 14.74a16.66 16.66 0 01-5.08.55c-6.24 0-9.54-4.52-9.54-9.69 0-4.32 2-10.07 9.25-10.07 7.09 0 9.58 4.36 8.72 12.27h-12.14c0 1.8 2.1 3 4 3a10.44 10.44 0 003.25-.42zm-5.1-14.71c-1.15 0-3.69.07-3.65 3.65h7.21c-.08-3.3-1.82-3.63-3.56-3.65zm-46.44-3.65a24.93 24.93 0 016.17-.91c4.35 0 7.22 1.9 7.22 6v13.59h-4.79s-.2-.9-.27-.86a11.09 11.09 0 01-4.84 1.09c-5.3 0-6.75-3.44-6.75-5.74 0-3.85 2.67-6.7 9.74-6.64h1.45v-.63c0-.91.09-2.27-2.06-2.27a16.74 16.74 0 00-4.38.64zm8 10.55h-.91c-3.72 0-5.34.58-5.34 2.45 0 1.36 1.05 1.91 2.3 1.91 1.25 0 3.25-.4 3.95-1.18zm21.79 8.12l-6.06-9.12v9.12h-5.9v-22.9h5.9v10.47l5-6.85h6.7l-6.23 8.41 7.21 10.87zm41.8-18.86c-.24.69-1.59 4.47-1.59 4.47-2-1.06-5.68-.1-5.74 4.2v10.19h-5.71V22.2h4.45l.64 1a7.38 7.38 0 014.5-1.26 9.28 9.28 0 013.43.61M95.768 36.41a5.16 5.16 0 01-3.45-.84c-1.14-.91-1.06-2.48-1.08-4v-4h4.55v-5.3h-4.58v-3.69h-5.36v3.69h-4.89v5.25h4.86v4.1c0 2.24.06 5.62 2.46 7.95 1.53 1.49 4.41 2.13 7.22 2.13h.25zm146.55 3.47c-1 1.13-2.05 1.85-5.23 1.85a19.9999 19.9999 0 01-4.12-.54 30.6801 30.6801 0 01-3.6-1.08l1.67-4.79c1.92.56 1.46.43 2.32.69 2.45.72 4.13 1.22 4.52 0a1.25 1.25 0 00-.21-1.32 5.2698 5.2698 0 00-1.28-.81c-.6-.3-4.66-2-5.63-2.81a4.14 4.14 0 01-1.47-3.26 6.0804 6.0804 0 012.88-5.15c2.6-1.5 7.57-.18 8.52.05.9319.2295 1.8344.565 2.69 1l-1.51 4.21c.27.16-5.47-2.34-6.23-.82-.3735.498-.25 1.2077.27 1.55.3.26 3.86 1.84 4.83 2.32 4.96 2.38 2.59 7.84 1.58 8.91z" fill="#fff"/></svg>